<svg width="32" height="32" viewBox="0 0 32 32" fill="none" xmlns="http://www.w3.org/2000/svg">
<g clip-path="url(#clip0_10_167)">
<path d="M31.8129 13.3912C32.1963 12.3864 31.9846 11.2047 31.1762 10.3963L21.603 0.823124C20.5064 -0.273501 18.722 -0.273376 17.6255 0.823124L6.86294 11.5857H2.8125C1.26169 11.5857 0 12.8474 0 14.3982V29.1868C0 30.7376 1.26169 31.9993 2.8125 31.9993H29.1875C30.7383 31.9993 32 30.7376 32 29.1868V14.3982C32 14.0434 31.9333 13.7041 31.8129 13.3912ZM29.7766 11.6483C29.5866 11.6076 29.3896 11.5857 29.1875 11.5857H27.1561L28.4351 10.3067L29.7766 11.6483ZM27.1092 8.98094L24.5044 11.5857H21.8527L25.7834 7.65506L27.1092 8.98094ZM18.9514 2.14894C19.1342 1.96619 19.3743 1.87475 19.6143 1.87475C19.8544 1.87475 20.0944 1.96619 20.2772 2.14894L24.4576 6.32931L19.2011 11.5858H9.5145L18.9514 2.14894ZM30.125 29.1868C30.125 29.7037 29.7044 30.1243 29.1875 30.1243H2.8125C2.29556 30.1243 1.875 29.7037 1.875 29.1868V14.3982C1.875 13.8813 2.29556 13.4607 2.8125 13.4607H29.1875C29.7044 13.4607 30.125 13.8813 30.125 14.3982V29.1868Z" fill="white"/>
<path d="M3.6875 25.4116H8.05644V27.2866H3.6875V25.4116Z" fill="white"/>
<path d="M10.4395 25.4116H14.8084V27.2866H10.4395V25.4116Z" fill="white"/>
<path d="M17.1916 25.4116H21.5605V27.2866H17.1916V25.4116Z" fill="white"/>
<path d="M23.9435 25.4116H28.3125V27.2866H23.9435V25.4116Z" fill="white"/>
<path d="M8.51669 15.9608H5.3125C4.45094 15.9608 3.75 16.6617 3.75 17.5233V20.0233C3.75 20.8848 4.45094 21.5858 5.3125 21.5858H8.51669C9.37825 21.5858 10.0792 20.8848 10.0792 20.0233V17.5233C10.0792 16.6617 9.37825 15.9608 8.51669 15.9608ZM8.20419 19.7108H5.625V17.8358H8.20419V19.7108Z" fill="white"/>
</g>
<defs>
<clipPath id="clip0_10_167">
<rect width="32" height="32" fill="white"/>
</clipPath>
</defs>
</svg>
