<svg width="28" height="30" viewBox="0 0 28 30" fill="none" xmlns="http://www.w3.org/2000/svg">
<path d="M14.52 7.54999H6.51996C6.25474 7.54999 6.00039 7.65534 5.81285 7.84288C5.62532 8.03042 5.51996 8.28477 5.51996 8.54999C5.51996 8.8152 5.62532 9.06956 5.81285 9.25709C6.00039 9.44463 6.25474 9.54999 6.51996 9.54999H14.52C14.7852 9.54999 15.0395 9.44463 15.2271 9.25709C15.4146 9.06956 15.52 8.8152 15.52 8.54999C15.52 8.28477 15.4146 8.03042 15.2271 7.84288C15.0395 7.65534 14.7852 7.54999 14.52 7.54999Z" fill="white"/>
<path d="M14.52 12.9H6.51996C6.25474 12.9 6.00039 13.0054 5.81285 13.1929C5.62532 13.3804 5.51996 13.6348 5.51996 13.9C5.51996 14.1652 5.62532 14.4196 5.81285 14.6071C6.00039 14.7946 6.25474 14.9 6.51996 14.9H14.52C14.7852 14.9 15.0395 14.7946 15.2271 14.6071C15.4146 14.4196 15.52 14.1652 15.52 13.9C15.52 13.6348 15.4146 13.3804 15.2271 13.1929C15.0395 13.0054 14.7852 12.9 14.52 12.9Z" fill="white"/>
<path d="M14.52 18.37H6.51996C6.25474 18.37 6.00039 18.4754 5.81285 18.6629C5.62532 18.8504 5.51996 19.1048 5.51996 19.37C5.51996 19.6352 5.62532 19.8896 5.81285 20.0771C6.00039 20.2646 6.25474 20.37 6.51996 20.37H14.52C14.7852 20.37 15.0395 20.2646 15.2271 20.0771C15.4146 19.8896 15.52 19.6352 15.52 19.37C15.52 19.1048 15.4146 18.8504 15.2271 18.6629C15.0395 18.4754 14.7852 18.37 14.52 18.37Z" fill="white"/>
<path d="M23.87 0H4.12998C3.61698 0.00130864 3.10928 0.103814 2.63596 0.301646C2.16263 0.499477 1.73299 0.788746 1.37164 1.15288C1.01029 1.51702 0.724329 1.94887 0.53014 2.4237C0.33595 2.89853 0.237348 3.407 0.239981 3.92V28.31C0.239326 28.5603 0.305303 28.8062 0.431135 29.0226C0.556967 29.2389 0.738119 29.4179 0.955986 29.5411C1.17385 29.6643 1.42058 29.7272 1.67084 29.7235C1.92109 29.7198 2.16585 29.6496 2.37998 29.52L6.05998 27.31C6.1155 27.2754 6.17958 27.2571 6.24498 27.2571C6.31038 27.2571 6.37447 27.2754 6.42998 27.31L10.52 29.76C10.7351 29.8971 10.9849 29.97 11.24 29.97C11.4967 29.9687 11.7485 29.8997 11.97 29.77L16.08 27.31C16.1355 27.2754 16.1996 27.2571 16.265 27.2571C16.3304 27.2571 16.3945 27.2754 16.45 27.31L20.11 29.52C20.3248 29.6476 20.5701 29.715 20.82 29.715C21.0699 29.715 21.3151 29.6476 21.53 29.52C21.7451 29.397 21.924 29.2194 22.0486 29.0052C22.1733 28.7911 22.2393 28.5478 22.24 28.3V11.44H25.38C26.0104 11.4374 26.6142 11.1858 27.06 10.74C27.5058 10.2942 27.7573 9.6904 27.76 9.06V3.92C27.7626 3.407 27.664 2.89853 27.4698 2.4237C27.2756 1.94887 26.9897 1.51702 26.6283 1.15288C26.267 0.788746 25.8373 0.499477 25.364 0.301646C24.8907 0.103814 24.383 0.00130864 23.87 0ZM20.24 27.26L17.48 25.6C17.1123 25.3817 16.6926 25.2665 16.265 25.2665C15.8374 25.2665 15.4177 25.3817 15.05 25.6L11.25 27.88L7.45998 25.59C7.08792 25.3675 6.66213 25.2508 6.22859 25.2525C5.79505 25.2543 5.37022 25.3744 4.99998 25.6L2.23998 27.27V3.92C2.236 3.66929 2.28195 3.42029 2.37515 3.18751C2.46834 2.95473 2.60693 2.74283 2.78283 2.56413C2.95873 2.38544 3.16843 2.24353 3.39971 2.14668C3.63099 2.04983 3.87924 1.99997 4.12998 2H20.65C20.3859 2.5031 20.2454 3.06183 20.24 3.63V27.23V27.26ZM25.76 9.06C25.76 9.16078 25.7199 9.25744 25.6487 9.3287C25.5774 9.39997 25.4808 9.44 25.38 9.44H22.24V3.66C22.236 3.44343 22.2752 3.22825 22.3553 3.02701C22.4355 2.82577 22.5549 2.64252 22.7067 2.48797C22.8584 2.33342 23.0395 2.21067 23.2392 2.12688C23.4389 2.0431 23.6534 1.99996 23.87 2C24.3712 2 24.852 2.19912 25.2064 2.55357C25.5609 2.90801 25.76 3.38874 25.76 3.89V9.06Z" fill="white"/>
</svg>
